<?xml version="1.0" encoding="UTF-8" standalone="no"?>
<!DOCTYPE svg PUBLIC "-//W3C//DTD SVG 1.1//EN" "http://www.w3.org/Graphics/SVG/1.1/DTD/svg11.dtd">
<svg width="100%" height="100%" viewBox="0 0 212 217" version="1.1" xmlns="http://www.w3.org/2000/svg" xmlns:xlink="http://www.w3.org/1999/xlink" xml:space="preserve" xmlns:serif="http://www.serif.com/" style="fill-rule:evenodd;clip-rule:evenodd;stroke-linejoin:round;stroke-miterlimit:2;">
    <g transform="matrix(0.110566,-0.172625,0.287046,0.197884,-69.9357,101.362)">
        <path d="M564.268,255.2L400.619,255.2L400.619,742.195C400.619,755.48 418.951,766.265 441.531,766.265L523.356,766.265C545.936,766.265 564.268,755.48 564.268,742.195L564.268,255.2Z" style="fill:rgb(245,158,11);"/>
    </g>
    <g transform="matrix(0.10279,-0.160484,0.214642,0.14797,-31.4377,125.186)">
        <path d="M394.818,166.803L265.761,166.803C242.018,166.803 222.742,180.902 222.742,198.269L222.742,371.257C222.742,388.624 242.018,402.723 265.761,402.723L394.818,402.723L394.818,166.803Z" style="fill:rgb(245,158,11);"/>
    </g>
    <g transform="matrix(0.103567,-0.161697,0.20814,0.143488,10.707,63.0608)">
        <path d="M394.818,199.497C394.818,181.453 375.542,166.803 351.799,166.803L222.742,166.803L222.742,402.723L351.799,402.723C375.542,402.723 394.818,388.074 394.818,370.029L394.818,199.497Z" style="fill:rgb(245,158,11);"/>
    </g>
    <g transform="matrix(0.211031,0,0,0.224421,-19.5093,23.8177)">
        <path d="M673.676,670.519C673.676,656.761 661.798,645.591 647.167,645.591L129.917,645.591C115.287,645.591 103.409,656.761 103.409,670.519L103.409,745.3L673.676,745.3L673.676,670.519Z" style="fill:rgb(245,158,11);"/>
    </g>
</svg>
